<?xml version="1.0" encoding="UTF-8" standalone="no"?>
<!-- Created with Inkscape (http://www.inkscape.org/) -->

<svg
   width="26.468788mm"
   height="26.431059mm"
   viewBox="0 0 26.468788 26.431059"
   version="1.1"
   id="svg891"
   inkscape:version="1.1 (c68e22c387, 2021-05-23)"
   sodipodi:docname="desenho.svg"
   xmlns:inkscape="http://www.inkscape.org/namespaces/inkscape"
   xmlns:sodipodi="http://sodipodi.sourceforge.net/DTD/sodipodi-0.dtd"
   xmlns="http://www.w3.org/2000/svg"
   xmlns:svg="http://www.w3.org/2000/svg">
  <sodipodi:namedview
     id="namedview893"
     pagecolor="#505050"
     bordercolor="#eeeeee"
     borderopacity="1"
     inkscape:pageshadow="0"
     inkscape:pageopacity="0"
     inkscape:pagecheckerboard="0"
     inkscape:document-units="mm"
     showgrid="false"
     inkscape:zoom="0.92473457"
     inkscape:cx="8.6511311"
     inkscape:cy="79.482267"
     inkscape:window-width="1280"
     inkscape:window-height="961"
     inkscape:window-x="-8"
     inkscape:window-y="-8"
     inkscape:window-maximized="1"
     inkscape:current-layer="layer1"
     fit-margin-top="0"
     fit-margin-left="0"
     fit-margin-right="0"
     fit-margin-bottom="0" />
  <defs
     id="defs888" />
  <g
     inkscape:label="Camada 1"
     inkscape:groupmode="layer"
     id="layer1"
     transform="translate(-59.096982,-80.058987)">
    <path
       d="m 75.010209,106.22346 c 7.12392,-1.4856 11.9939,-9.137227 10.17123,-15.980847 0,0 -1.39495,-3.8351 -1.68577,-3.8351 -0.12233,0 -0.42799,0.34801 -0.67924,0.77335 -0.6538,1.10679 -2.75063,2.55963 -4.81646,3.33721 -0.99036,0.37277 -3.63015,0.95515 -5.95344,1.31342 -4.5636,0.70375 -5.68614,1.01594 -7.52237,2.09204 -3.08776,1.80955 -3.68417,5.63324 -1.35454,8.684257 1.37188,1.7967 1.74034,1.79094 1.12977,-0.0176 -0.59946,-1.77564 -0.46258,-3.103507 0.48692,-4.723827 0.93757,-1.59997 3.00987,-2.52693 7.54894,-3.37676 1.97773,-0.37028 4.29945,-0.90952 5.15938,-1.1983 l 1.56349,-0.52507 -0.66146,0.56434 c -0.84833,0.72378 -3.2449,1.80612 -6.03332,2.72477 -1.20828,0.39807 -2.68749,1.09883 -3.28714,1.55725 -2.11975,1.6205 -2.84565,4.164007 -1.82359,6.389737 0.87604,1.90776 1.90105,2.43356 4.84718,2.48646 0.82958,0.0149 2.13927,-0.1045 2.91042,-0.26531 z m -14.2719,-11.762237 c 1.43944,-2.76071 4.48602,-4.19664 10.6469,-5.01818 4.20842,-0.56118 6.22446,-1.03913 7.74142,-1.83527 1.56078,-0.81913 2.01152,-1.17767 2.40182,-1.91047 0.45543,-0.8551 0.38239,-1.2772 -0.37718,-2.1799 -0.76602,-0.91037 -1.18012,-1.05328 -0.99443,-0.34318 0.327,1.25045 -0.98189,2.6281 -3.08309,3.24509 -1.09079,0.32027 -9.04826,1.34689 -9.2073,1.18785 -0.10038,-0.10038 1.17022,-0.50357 4.97396,-1.57835 2.90356,-0.82042 4.73075,-2.36176 4.39337,-3.70604 -0.37874,-1.50901 -1.94384,-2.26108 -4.71107,-2.26378 -7.36935,-0.007 -13.35861,5.87109 -13.42538,13.17667 -0.008,0.91783 0.12314,2.21836 0.29228,2.89008 l 0.30753,1.22131 0.30946,-1.038 c 0.1702,-0.5709 0.49947,-1.40242 0.73171,-1.84783 z"
       style="fill:#1a1a1a;fill-opacity:1;stroke-width:0.0700042"
       id="path5953"
       sodipodi:nodetypes="sssssssssssscssssssssssssscsssccscss" />
    <path
       d="m 121.52071,98.136503 c 0.33519,-0.24925 2.0376,-4.560088 2.0376,-5.159628 0,-0.0547 -0.37694,-0.0621 -0.83765,-0.0165 -0.72235,0.0715 -0.88139,0.22858 -1.15548,1.141228 l -0.31785,1.05835 -0.20124,-1.12448 c -0.19077,-1.065978 -0.2486,-1.124498 -1.1113,-1.124498 -1.01951,0 -1.01814,-0.0716 -0.0481,2.513558 0.59944,1.59748 0.60652,1.71979 0.0998,1.71979 -0.24694,0 -0.39688,0.24989 -0.39688,0.66146 0,0.54855 0.12685,0.66146 0.74318,0.66146 0.40875,0 0.94334,-0.14883 1.18798,-0.33073 z m -20.61995,-1.54056 c 0.5019,-0.39479 0.69714,-0.79328 0.69714,-1.42281 0,-1.03984 -0.35676,-1.385878 -1.721061,-1.669338 -0.56,-0.11635 -1.06661,-0.35687 -1.12581,-0.53447 -0.13321,-0.39964 0.58325,-0.42021 1.298771,-0.0373 0.41943,0.22447 0.6442,0.18575 1.04919,-0.18076 0.43275,-0.39163 0.45809,-0.52371 0.15809,-0.823708 -0.19651,-0.196509 -0.78905,-0.427371 -1.316781,-0.51299 -1.85608,-0.301199 -3.1049,0.412221 -3.1049,1.773748 0,0.862058 0.66266,1.412698 2.04749,1.701378 0.47127,0.0982 0.91948,0.27995 0.99602,0.4038 0.265421,0.42944 -0.93443,0.56282 -1.6868,0.1875 -0.67461,-0.33655 -0.82252,-0.32717 -1.37159,0.087 l -0.61543,0.46422 0.91047,0.55504 c 1.1958,0.72899 2.86458,0.7328 3.785201,0.009 z m 4.73204,0.28203 0.99219,0.0232 v -1.99509 -1.995098 h -0.79375 c -0.75889,0 -0.79375,0.05 -0.79375,1.137708 0,0.62574 -0.14005,1.27775 -0.3112,1.44891 -0.5259,0.52589 -1.01173,-0.16002 -1.01173,-1.42839 0,-1.110528 -0.0327,-1.158228 -0.79375,-1.158228 h -0.79375 v 1.587498 c 0,1.92093 0.63904,2.81219 1.81184,2.52697 0.38594,-0.0939 1.14819,-0.16023 1.6939,-0.14747 z m 12.67068,-0.25745 c 0.53301,-0.44697 0.56642,-0.56275 0.22776,-0.78938 -0.21829,-0.14607 -0.7702,-0.19733 -1.22648,-0.11391 -0.47709,0.0872 -0.90531,0.0292 -1.0078,-0.13666 -0.12058,-0.19512 0.30662,-0.28835 1.3213,-0.28835 h 1.4995 l -0.18224,-0.72612 c -0.37246,-1.484008 -1.5149,-2.118138 -2.95797,-1.641878 -1.01939,0.33643 -1.41506,0.92308 -1.41506,2.098048 0,1.79686 2.32145,2.78864 3.74099,1.59825 z m -1.75396,-2.65553 c 0.0914,-0.147888 0.27703,-0.200398 0.4125,-0.116668 0.36698,0.226808 0.29855,0.385568 -0.16619,0.385568 -0.22688,0 -0.33771,-0.121 -0.24631,-0.2689 z m -7.80787,2.01033 c 0,-1.2469 0.23345,-1.74143 0.82207,-1.74143 0.29274,0 0.50943,-0.19239 0.5215,-0.463018 0.0113,-0.25466 0.28867,0.310888 0.61624,1.256768 0.57111,1.64911 0.63432,1.7231 1.53775,1.80018 0.93749,0.08 0.94493,0.0722 1.50042,-1.57273 0.73188,-2.167208 0.71501,-2.344118 -0.22349,-2.344118 -0.68806,0 -0.80318,0.11414 -0.96039,0.95222 -0.19115,1.018848 -0.62732,0.775818 -0.63504,-0.35384 -0.004,-0.57049 -0.0915,-0.59156 -2.38531,-0.57367 l -2.38125,0.0186 v 1.962738 1.96273 h 0.79375 c 0.72714,0 0.79375,-0.0759 0.79375,-0.9044 z"
       style="fill:#e5e5e5;fill-opacity:1;stroke-width:0.0185219"
       id="path6625"
       sodipodi:nodetypes="cssscsssssscccsssssscscssscsccccccssssscscscssssscsssssssssscssssscscccsss" />
    <path
       d="m 98.067558,104.6628 c 0,-0.71168 0.0694,-0.78136 0.63682,-0.63896 0.870975,0.21861 1.679422,-0.27082 2.123602,-1.28561 0.30754,-0.70262 0.37511,-0.74945 0.39299,-0.2724 0.0269,0.7181 1.20206,1.67285 2.05903,1.67285 0.70828,0 1.69362,-0.44586 1.98776,-0.89944 0.26616,-0.41041 -0.55993,-0.67595 -1.57782,-0.50717 -0.53981,0.0895 -0.85989,0.0331 -0.85989,-0.15145 0,-0.17644 0.52904,-0.29403 1.32291,-0.29403 1.12774,0 1.32293,-0.0749 1.32293,-0.50752 0,-0.8706 -0.30067,-1.34963 -1.10972,-1.768 -1.3182,-0.681668 -2.88176,-0.0196 -3.18696,1.34948 -0.10207,0.4579 -0.16143,0.423 -0.44074,-0.2592 -0.43461,-1.0615 -0.66083,-1.162937 -2.593622,-1.162937 h -1.66479 v 2.761597 2.76158 h 0.79375 c 0.70667,0 0.79375,-0.0876 0.79375,-0.79879 z m 0.10161,-2.22846 c -0.233,-0.6072 0.003,-1.33837 0.43118,-1.33837 0.25027,0 0.423398,0.31264 0.476168,0.8599 0.0622,0.64532 -0.0224,0.85989 -0.339038,0.85989 -0.23207,0 -0.48781,-0.17164 -0.56831,-0.38142 z m 4.859322,-1.38131 c 0.1819,-0.0734 0.47955,-0.0734 0.66145,0 0.18191,0.0734 0.0331,0.13346 -0.33073,0.13346 -0.36379,0 -0.51263,-0.0601 -0.33072,-0.13346 z m -12.631172,2.42176 c 0.326668,-0.29562 0.526489,-0.81399 0.526489,-1.36577 0,-0.74973 -0.134969,-0.94841 -0.85989,-1.26575 -0.472951,-0.20704 -1.20454,-0.44983 -1.625772,-0.53954 -0.580488,-0.12361 -0.691676,-0.2373 -0.45933,-0.469647 0.232341,-0.23234 0.509873,-0.2298 1.146503,0.0105 0.71039,0.268137 0.915149,0.248987 1.327457,-0.12413 0.409342,-0.370461 0.430213,-0.498491 0.130212,-0.798491 -0.196509,-0.1965 -0.789059,-0.42736 -1.316789,-0.51299 -1.856073,-0.3012 -3.104891,0.41222 -3.104891,1.773758 0,0.86204 0.66266,1.4127 2.047489,1.70136 0.471281,0.0982 0.91948,0.27995 0.996032,0.40381 0.265409,0.42945 -0.93445,0.56283 -1.686801,0.1875 -0.674629,-0.33654 -0.822531,-0.32716 -1.371589,0.087 l -0.615432,0.46421 0.910471,0.57076 c 1.10031,0.68978 3.127621,0.62696 3.955841,-0.12257 z m 4.56139,0.39755 0.99218,0.0232 v -1.99509 -1.995097 h -0.92603 -0.92605 v 1.278817 c 0,0.70335 -0.0783,1.35716 -0.17409,1.45292 -0.3917,0.39171 -0.88423,-0.48475 -0.88423,-1.57351 0,-1.110527 -0.0327,-1.158227 -0.793751,-1.158227 h -0.79375 v 1.704787 c 0,1.4657 0.0835,1.76435 0.59531,2.12949 0.366731,0.26164 0.849281,0.3642 1.256761,0.26712 0.3638,-0.0867 1.10794,-0.14716 1.65365,-0.1344 z m 12.685502,-1.25502 c 0.0688,-1.07248 0.16793,-1.26917 0.67595,-1.34131 0.4226,-0.06 0.59532,-0.26319 0.59532,-0.70025 0,-0.56779 -0.11321,-0.617037 -1.45522,-0.633067 l -1.45521,-0.0174 v 1.974367 1.9744 h 0.77926 c 0.74193,0 0.78311,-0.0602 0.8599,-1.25676 z"
       style="fill:#e5e5e5;fill-opacity:1;stroke-width:0.00490059"
       id="path7117" />
  </g>
</svg>
